<svg xmlns="http://www.w3.org/2000/svg" version="1.1" xmlns:xlink="http://www.w3.org/1999/xlink" xmlns:svgjs="http://svgjs.dev/svgjs" width="1000" height="343" viewBox="0 0 1000 343"><g transform="matrix(1,0,0,1,-0.6060442602417879,0.5992284222729722)"><svg viewBox="0 0 396 136" data-background-color="#ffffff" preserveAspectRatio="xMidYMid meet" height="343" width="1000" xmlns="http://www.w3.org/2000/svg" xmlns:xlink="http://www.w3.org/1999/xlink"><g id="tight-bounds" transform="matrix(1,0,0,1,0.23999352705575916,-0.23759494294205297)"><svg viewBox="0 0 395.5199999999999 136.47517693999566" height="136.47517693999566" width="395.5199999999999"><g><svg viewBox="0 0 655.3581221230522 226.13297854926893" height="136.47517693999566" width="395.5199999999999"><g transform="matrix(1,0,0,1,0,53.28643613741893)"><svg viewBox="0 0 395.52 119.56010627443106" height="119.56010627443106" width="395.52"><g id="textblocktransform"><svg viewBox="0 0 395.52 119.56010627443106" height="119.56010627443106" width="395.52" id="textblock"><g><svg viewBox="0 0 395.52 71.38621370614405" height="71.38621370614405" width="395.52"><g transform="matrix(1,0,0,1,0,0)"><svg width="395.52" viewBox="2.799999952316284 -34.75 199.17572021484375 35.95000076293945" height="71.38621370614405" data-palette-color="#010c80"><g class="undefined-text-0" data-fill-palette-color="primary" id="text-0"><path d="M13.2 0.3Q10.05 0.3 8.5 0.2L8.5 0.2Q6.1 0.1 4.3-0.4L4.3-0.4Q4.1-0.4 3.9-1L3.9-1Q3.75-1.45 3.75-1.7L3.75-1.7 2.8-19.9 2.8-20.9Q2.8-21.25 2.85-22.15 2.9-23.05 2.9-24.55L2.9-24.55 3-27.15Q3-28.15 3.05-28.65L3.05-28.65Q3.05-30.15 3.15-31.55L3.15-31.55Q3.15-32 3.18-32.18 3.2-32.35 3.2-32.4L3.2-32.4Q3.3-32.45 3.58-32.68 3.85-32.9 4.05-33.05L4.05-33.05Q4.55-33.5 5.5-33.5L5.5-33.5 8.4-33.5 9.2-33.5Q9.7-33.45 11.05-33.45L11.05-33.45Q12.5-33.45 13.4-33.4L13.4-33.4 15.7-33.4 17.55-33.4 18.3-33.4Q19.6-33.4 20.05-33L20.05-33Q20.65-32.55 20.65-31.25L20.65-31.25 20.65-30.75Q20.65-30.55 20.6-30.35 20.55-30.15 20.55-29.95L20.55-29.95 20.45-29.15 20.4-28.55Q20.4-28.35 20.5-28.15L20.5-28.15Q20.55-27.95 20.55-27.65L20.55-27.65Q20.55-26.3 20.5-25.7L20.5-25.7 20.45-23.65 21.75-23.65Q22.4-23.5 23.15-23.5L23.15-23.5Q24.15-23.4 24.55-23.4L24.55-23.4Q25-23.3 25.9-23.3L25.9-23.3 25.95-26.7Q26-27.15 26-28L26-28 26.05-30.05 26.05-30.45Q26.05-31.25 26.1-31.88 26.15-32.5 26.3-32.75L26.3-32.75Q26.6-33.15 27-33.15L27-33.15Q27.3-33.25 28.4-33.25L28.4-33.25 29.75-33.3Q31.2-33.3 32.15-33.4L32.15-33.4 35-33.4Q37-33.4 37.9-33.45L37.9-33.45Q39.65-33.45 40.3-33.5L40.3-33.5 41.65-33.5Q42.85-33.5 43.25-33.2L43.25-33.2Q43.55-33 43.65-32.63 43.75-32.25 43.75-31.55L43.75-31.55Q43.75-29.6 43.65-26.3L43.65-26.3Q43.45-23.1 43.45-21.15L43.45-21.15Q43.45-20.85 43.55-20.65L43.55-20.65Q43.55-20.45 43.6-20.33 43.65-20.2 43.65-20.15L43.65-20.15 42.4-1.15Q42.4-0.9 42.05-0.45L42.05-0.45Q41.6 0 41.25 0L41.25 0 27.5 0Q27.35 0 27.2-0.25 27.05-0.5 26.95-0.9L26.95-0.9Q26.9-1.15 26.83-1.58 26.75-2 26.7-2.65L26.7-2.65 26.15-11.9 25.8-11.9Q24.45-11.9 23.65-11.95L23.65-11.95Q21.75-12.05 21.3-12.05L21.3-12.05 20.9-12.05Q20.45-12.05 20.45-11.2L20.45-11.2Q20.45-5 20.4-3.3L20.4-3.3Q20.4-2.9 20.25-1.4L20.25-1.4Q20.15-0.25 19.4 0L19.4 0 18.65 0.05Q14.75 0.25 13.2 0.3L13.2 0.3ZM68.4 1.2Q62.45 1.2 59 0.25L59 0.25Q54.2-1 51.7-4.4L51.7-4.4Q48.8-8.45 48.8-15.65L48.8-15.65Q48.8-20.8 49.95-24.4 51.1-28 53.5-30.3L53.5-30.3Q55.9-32.6 59.67-33.68 63.45-34.75 68.9-34.75L68.9-34.75Q73.15-34.75 76.9-33.45L76.9-33.45Q81.5-31.8 84.05-28.4L84.05-28.4Q87.2-24.35 87.2-17.75L87.2-17.75Q87.2-10.05 84.9-5.75L84.9-5.75Q82.6-1.8 78.25-0.15L78.25-0.15Q74.7 1.2 68.4 1.2L68.4 1.2ZM68-3.65Q68.6-3.65 68.95-4.4L68.95-4.4Q69.7-6 70-9.45L70-9.45Q70.3-12.6 70.3-15.4L70.3-15.4 70.3-17.4 70.3-18.65Q70.3-20.85 70-24L70-24Q69.7-27.4 68.95-29.15L68.95-29.15Q68.55-30 68-30L68-30Q66.9-30 66.4-27.9L66.4-27.9Q65.9-25 65.9-22.65L65.9-22.65Q65.75-20.65 65.75-16.4L65.75-16.4Q65.75-13.55 65.9-11.7L65.9-11.7Q65.9-9.35 66.4-6.25L66.4-6.25Q66.9-3.65 68-3.65L68-3.65ZM102.7 1.15Q97.95 1.15 95.5-1.05L95.5-1.05Q93.45-2.8 92.7-6.65L92.7-6.65Q92.2-9.2 92.2-14.3L92.2-14.3Q92.2-18 92.6-22.4L92.6-22.4Q92.6-23.1 92.7-24.4L92.7-24.4Q92.75-25.45 92.8-27.38 92.85-29.3 92.85-30.75L92.85-30.75Q92.85-31.5 92.75-31.8L92.75-31.8Q92.65-32.5 92.65-32.9L92.65-32.9Q92.65-33.7 94.35-33.7L94.35-33.7 97.35-33.7Q100.55-33.8 103.5-33.5L103.5-33.5Q105.55-33.3 106.65-33.05L106.65-33.05Q108-32.7 108.45-32.05L108.45-32.05Q108.85-31.3 108.85-29.45L108.85-29.45Q108.85-27.2 108.8-25.33 108.75-23.45 108.7-22L108.7-22Q108.65-21.65 108.65-20.9L108.65-20.9Q108.65-19.9 108.55-17.5L108.55-17.5Q108.45-13.1 108.45-10.15L108.45-10.15Q108.45-8.3 108.6-7.45L108.6-7.45Q108.75-6.65 109.4-6.65L109.4-6.65Q110.75-6.65 112.35-7.3L112.35-7.3Q113.35-7.8 113.75-8.05L113.75-8.05 113.75-28.15Q113.6-29.3 113.6-30.4L113.6-30.4Q113.5-30.7 113.5-31.25L113.5-31.25 113.5-31.7Q113.5-32.6 113.85-32.95L113.85-32.95Q114.2-33.25 115.5-33.25L115.5-33.25Q116.95-33.25 119.25-33.4L119.25-33.4Q120.05-33.4 121.45-33.5L121.45-33.5Q122.45-33.5 122.9-33.65L122.9-33.65Q123.2-33.65 123.59-33.55L123.59-33.55Q124.2-33.55 124.59-33.5L124.59-33.5 126.09-33.45Q127.2-33.4 128.85-33.05L128.85-33.05 130.25-32.65Q130.69-32.5 130.82-32.3 130.94-32.1 130.94-31.8L130.94-31.8Q130.94-24.4 130.65-16.95L130.65-16.95Q130.35-7.15 130.35-2.15L130.35-2.15Q130.35-0.15 128.44-0.15L128.44-0.15 125.9-0.15Q124.9-0.05 122.25 0.05L122.25 0.05Q120.75 0.15 119.9 0.15L119.9 0.15 117.6 0.25Q116.25 0.25 115.55-0.2 114.85-0.65 114.6-1.75L114.6-1.75Q111.9-0.4 108.9 0.4L108.9 0.4Q105.9 1.15 102.7 1.15L102.7 1.15ZM150.49 1.2Q146.94 1.2 143.34 0.4L143.34 0.4Q139.79-0.45 137.49-1.9L137.49-1.9Q136.89-3.7 136.59-5.5 136.29-7.3 135.84-10.65L135.84-10.65 135.84-10.8Q135.94-11.4 136.49-11.7L136.49-11.7Q138.39-10.55 140.14-9.98 141.89-9.4 143.99-9.4L143.99-9.4 145.19-9.4 145.99-9.35Q147.14-9.35 148.34-9.7L148.34-9.7Q148.99-9.95 149.24-10.65L149.24-10.65 146.59-11.95Q143.54-13.4 141.09-15.05L141.09-15.05Q138.54-16.9 137.44-19.75L137.44-19.75Q136.89-21.3 136.89-23.15L136.89-23.15Q136.89-27.65 139.64-30.4L139.64-30.4Q142.04-32.85 146.14-33.9L146.14-33.9Q149.69-34.75 153.94-34.75L153.94-34.75Q156.44-34.75 160.84-34.2L160.84-34.2Q161.29-34.1 162.09-34L162.09-34 163.59-33.7Q165.29-33.4 166.09-33.4L166.09-33.4Q166.14-33.4 166.27-33.25 166.39-33.1 166.49-33L166.49-33Q166.69-32.65 166.89-32.65L166.89-32.65 166.94-32.65 166.99-32.65 167.09-31.6Q167.09-30.85 167.24-30L167.24-30Q167.39-28.75 167.39-27.3L167.39-27.3Q167.39-26.05 167.24-25.5L167.24-25.5Q166.99-24.5 166.34-24.05L166.34-24.05 161.69-24.65 161.19-24.65 160.49-24.65Q158.79-24.65 156.59-24.3L156.59-24.3 154.94-23.95Q154.34-23.85 154.34-23.75L154.34-23.75Q154.34-22.55 155.89-21.5L155.89-21.5Q156.64-21.1 157.39-20.83 158.14-20.55 158.34-20.45L158.34-20.45Q162.04-19.4 164.74-16.8L164.74-16.8Q165.99-15.6 166.69-14.25 167.39-12.9 167.39-11.65L167.39-11.65Q167.39-10.9 167.19-10.05L167.19-10.05Q166.84-6.3 164.34-3.55L164.34-3.55Q161.89-1.1 158.19 0.05L158.19 0.05Q154.99 1.2 150.49 1.2L150.49 1.2ZM176.74 0Q176.49 0 175.99-0.08 175.49-0.15 174.79-0.2L174.79-0.2 173.74-0.45Q173.49-0.5 173.37-0.58 173.24-0.65 173.29-0.7L173.29-0.7Q173.29-2 173.14-4.15L173.14-4.15Q173.14-4.9 173.09-5.48 173.04-6.05 172.99-6.45L172.99-6.45 172.89-8.6Q172.89-9.45 172.79-10.75L172.79-10.75 172.74-12.3Q172.74-14.2 172.69-15.25L172.69-15.25Q172.64-16.3 172.64-19.65L172.64-19.65Q172.64-22.8 172.69-26.15 172.74-29.5 172.99-32.5L172.99-32.5Q172.99-33.05 174.19-33.4L174.19-33.4Q174.94-33.5 176.69-33.5L176.69-33.5Q180.74-33.5 182.64-33.65L182.64-33.65Q188.54-33.75 191.54-33.75L191.54-33.75 193.74-33.75Q197.84-33.65 200.04-33.45L200.04-33.45Q200.84-33.45 201.19-31.55L201.19-31.55Q201.34-31.2 201.54-29.75L201.54-29.75Q201.69-29 201.94-27.9L201.94-27.9Q201.99-27.6 201.97-27.33 201.94-27.05 201.94-27L201.94-27Q201.89-26.5 201.39-26.5L201.39-26.5Q201.19-26.55 200.79-26.55L200.79-26.55Q198.69-26.55 195.64-26.2L195.64-26.2 192.99-26Q191.34-25.8 190.39-25.75L190.39-25.75Q190.24-25.75 189.99-25.15L189.99-25.15Q189.79-24.5 189.54-22.15L189.54-22.15 189.44-20.9Q189.44-20.25 189.59-20.08 189.74-19.9 190.24-19.9L190.24-19.9 194.69-19.9Q196.64-19.9 199.14-19.65L199.14-19.65 199.74-19.65Q200.39-19.5 200.54-19.15L200.54-19.15Q200.74-18.85 200.79-18.5L200.79-18.5 200.99-14.05 200.99-13.9Q200.99-13.05 199.19-12.9L199.19-12.9Q198.14-12.65 195.19-12.65L195.19-12.65Q192.64-12.65 191.89-12.7L191.89-12.7Q190.44-12.7 190.14-12.65L190.14-12.65Q189.59-12.5 189.44-12.08 189.29-11.65 189.29-10.65L189.29-10.65Q189.29-10 189.19-8.8L189.19-8.8Q189.14-8.2 189.14-6.9L189.14-6.9Q192.39-6.9 193.94-7L193.94-7Q195.64-7.15 198.74-7.15L198.74-7.15Q198.94-7.15 199.14-6.8L199.14-6.8Q199.39-6.3 199.94-4.55L199.94-4.55Q200.24-3.55 200.54-2.05L200.54-2.05Q200.64-1.7 200.64-1.3L200.64-1.3Q200.64-0.25 199.64-0.25L199.64-0.25Q198.34-0.25 196.14-0.15L196.14-0.15Q194.99-0.05 192.54-0.05L192.54-0.05Q187.29-0.05 184.64 0L184.64 0 176.74 0Z" fill="#010c80" data-fill-palette-color="primary"></path></g></svg></g></svg></g><g transform="matrix(1,0,0,1,163.310208,88.2387854930357)"><svg viewBox="0 0 232.209792 31.321320781395347" height="31.321320781395347" width="232.209792"><g transform="matrix(1,0,0,1,0,0)"><svg width="232.209792" viewBox="3.450000047683716 -37.150001525878906 279.4700012207031 37.70000076293945" height="31.321320781395347" data-palette-color="#0080ff"><path d="M31.75-34.25L35.05 0 32.15 0 30.6-16.4Q29.65-25.95 29.3-31.3L29.3-31.3 20.7-4.05 17.85-4.05 8.95-31.3Q8.7-26.45 7.95-18.45L7.95-18.45 7.8-16.5 6.3 0 3.45 0 6.7-34.25 10.85-34.25 19.35-7.6 27.55-34.25 31.75-34.25ZM60.05-5.8Q60.05-3.75 60.57-2.85 61.1-1.95 62.25-1.5L62.25-1.5 61.6 0.55Q59.8 0.2 58.82-0.8 57.85-1.8 57.55-3.85L57.55-3.85Q54.85 0.55 49.4 0.55L49.4 0.55Q45.65 0.55 43.47-1.58 41.3-3.7 41.3-7.25L41.3-7.25Q41.3-11.3 44.17-13.5 47.05-15.7 52.15-15.7L52.15-15.7 57.15-15.7 57.15-18.25Q57.15-21.4 55.75-22.83 54.35-24.25 51.1-24.25L51.1-24.25Q48.1-24.25 44-22.75L44-22.75 43.25-24.95Q47.65-26.7 51.5-26.7L51.5-26.7Q60.05-26.7 60.05-18.4L60.05-18.4 60.05-5.8ZM49.9-1.8Q54.6-1.8 57.15-6.4L57.15-6.4 57.15-13.6 52.6-13.6Q48.6-13.6 46.5-12.05 44.4-10.5 44.4-7.4L44.4-7.4Q44.4-4.7 45.85-3.25 47.3-1.8 49.9-1.8L49.9-1.8ZM80.75-26.7Q82.3-26.7 83.34-26.4L83.34-26.4 82.8-23.65Q81.7-23.95 80.5-23.95L80.5-23.95Q77.84-23.95 76.22-22.03 74.59-20.1 73.5-16L73.5-16 73.5 0 70.59 0 70.59-26.15 73.09-26.15 73.34-20.3Q74.39-23.55 76.22-25.13 78.05-26.7 80.75-26.7L80.75-26.7ZM89.24-36.8L92.14-37.15 92.14 0 89.24 0 89.24-36.8ZM103.44-26.15L106.79-26.15 95.79-14.45 107.94 0 104.44 0 92.44-14.3 103.44-26.15ZM132.19-14.05Q132.19-12.95 132.09-11.95L132.09-11.95 114.64-11.95Q114.89-6.85 117.07-4.38 119.24-1.9 122.79-1.9L122.79-1.9Q124.84-1.9 126.42-2.53 127.99-3.15 129.84-4.5L129.84-4.5 131.19-2.65Q129.24-1.05 127.19-0.25 125.14 0.55 122.64 0.55L122.64 0.55Q117.44 0.55 114.49-3 111.54-6.55 111.54-12.85L111.54-12.85Q111.54-17 112.82-20.13 114.09-23.25 116.47-24.98 118.84-26.7 121.99-26.7L121.99-26.7Q126.99-26.7 129.59-23.33 132.19-19.95 132.19-14.05L132.19-14.05ZM129.34-14.2L129.34-14.95Q129.34-19.35 127.52-21.83 125.69-24.3 122.09-24.3L122.09-24.3Q118.84-24.3 116.84-21.8 114.84-19.3 114.64-14.2L114.64-14.2 129.34-14.2ZM151.19-3.1L152.34-1.1Q149.84 0.55 146.84 0.55L146.84 0.55Q143.84 0.55 142.14-1.23 140.44-3 140.44-6.35L140.44-6.35 140.44-23.8 136.04-23.8 136.04-26.15 140.44-26.15 140.44-32.4 143.34-32.75 143.34-26.15 150.09-26.15 149.74-23.8 143.34-23.8 143.34-6.5Q143.34-4.2 144.29-3.08 145.24-1.95 147.19-1.95L147.19-1.95Q149.19-1.95 151.19-3.1L151.19-3.1ZM179.73-34.25Q185.83-34.25 189.11-31.73 192.38-29.2 192.38-24L192.38-24Q192.38-18.5 188.96-15.93 185.53-13.35 179.58-13.35L179.58-13.35 174.68-13.35 174.68 0 171.68 0 171.68-34.25 179.73-34.25ZM179.58-15.8Q184.23-15.8 186.73-17.65 189.23-19.5 189.23-23.95L189.23-23.95Q189.23-28.15 186.81-29.98 184.38-31.8 179.68-31.8L179.68-31.8 174.68-31.8 174.68-15.8 179.58-15.8ZM204.28 0.55Q202.13 0.55 200.91-0.7 199.68-1.95 199.68-4.4L199.68-4.4 199.68-36.8 202.58-37.15 202.58-4.5Q202.58-1.95 204.68-1.95L204.68-1.95Q205.73-1.95 206.48-2.3L206.48-2.3 207.28-0.15Q205.88 0.55 204.28 0.55L204.28 0.55ZM230.38-5.8Q230.38-3.75 230.9-2.85 231.43-1.95 232.58-1.5L232.58-1.5 231.93 0.55Q230.13 0.2 229.15-0.8 228.18-1.8 227.88-3.85L227.88-3.85Q225.18 0.55 219.73 0.55L219.73 0.55Q215.98 0.55 213.8-1.58 211.63-3.7 211.63-7.25L211.63-7.25Q211.63-11.3 214.5-13.5 217.38-15.7 222.48-15.7L222.48-15.7 227.48-15.7 227.48-18.25Q227.48-21.4 226.08-22.83 224.68-24.25 221.43-24.25L221.43-24.25Q218.43-24.25 214.33-22.75L214.33-22.75 213.58-24.95Q217.98-26.7 221.83-26.7L221.83-26.7Q230.38-26.7 230.38-18.4L230.38-18.4 230.38-5.8ZM220.23-1.8Q224.93-1.8 227.48-6.4L227.48-6.4 227.48-13.6 222.93-13.6Q218.93-13.6 216.83-12.05 214.73-10.5 214.73-7.4L214.73-7.4Q214.73-4.7 216.18-3.25 217.63-1.8 220.23-1.8L220.23-1.8ZM249.88-26.7Q252.13-26.7 253.88-26.08 255.63-25.45 257.28-24.05L257.28-24.05 255.83-22.15Q254.53-23.2 253.15-23.7 251.78-24.2 250.03-24.2L250.03-24.2Q246.33-24.2 244.13-21.33 241.93-18.45 241.93-12.95L241.93-12.95Q241.93-7.5 244.1-4.75 246.28-2 249.98-2L249.98-2Q251.73-2 253.15-2.55 254.58-3.1 256.03-4.2L256.03-4.2 257.43-2.25Q254.13 0.55 249.93 0.55L249.93 0.55Q246.58 0.55 244.08-1.05 241.58-2.65 240.2-5.68 238.83-8.7 238.83-12.9L238.83-12.9Q238.83-17.05 240.2-20.18 241.58-23.3 244.08-25 246.58-26.7 249.88-26.7L249.88-26.7ZM282.92-14.05Q282.92-12.95 282.82-11.95L282.82-11.95 265.37-11.95Q265.62-6.85 267.8-4.38 269.97-1.9 273.52-1.9L273.52-1.9Q275.57-1.9 277.15-2.53 278.72-3.15 280.57-4.5L280.57-4.5 281.92-2.65Q279.97-1.05 277.92-0.25 275.87 0.55 273.37 0.55L273.37 0.55Q268.17 0.55 265.22-3 262.27-6.55 262.27-12.85L262.27-12.85Q262.27-17 263.55-20.13 264.82-23.25 267.2-24.98 269.57-26.7 272.72-26.7L272.72-26.7Q277.72-26.7 280.32-23.33 282.92-19.95 282.92-14.05L282.92-14.05ZM280.07-14.2L280.07-14.95Q280.07-19.35 278.25-21.83 276.42-24.3 272.82-24.3L272.82-24.3Q269.57-24.3 267.57-21.8 265.57-19.3 265.37-14.2L265.37-14.2 280.07-14.2Z" opacity="1" transform="matrix(1,0,0,1,0,0)" fill="#0080ff" class="undefined-text-1" data-fill-palette-color="secondary" id="text-1"></path></svg></g></svg></g></svg></g></svg></g><g transform="matrix(1,0,0,1,429.2251435737833,0)"><svg viewBox="0 0 226.13297854926893 226.13297854926893" height="226.13297854926893" width="226.13297854926893"><g><svg></svg></g><g id="icon-0"><svg viewBox="0 0 226.13297854926893 226.13297854926893" height="226.13297854926893" width="226.13297854926893"><g><path d="M0 113.066c0-62.445 50.622-113.066 113.066-113.066 62.445 0 113.066 50.622 113.067 113.066 0 62.445-50.622 113.066-113.067 113.067-62.445 0-113.066-50.622-113.066-113.067zM113.066 219.695c58.889 0 106.629-47.739 106.629-106.629 0-58.889-47.739-106.629-106.629-106.628-58.889 0-106.629 47.739-106.628 106.628 0 58.889 47.739 106.629 106.628 106.629z" data-fill-palette-color="accent" fill="#0023ff" stroke="transparent"></path></g><g transform="matrix(1,0,0,1,48.735053513225,48.82682306463997)"><svg viewBox="0 0 128.66287152281893 128.479332419989" height="128.479332419989" width="128.66287152281893"><g><svg xmlns="http://www.w3.org/2000/svg" xmlns:xlink="http://www.w3.org/1999/xlink" version="1.1" x="0" y="0" viewBox="1 1 70.0999984741211 70" enable-background="new 0 0 72 72" xml:space="preserve" height="128.479332419989" width="128.66287152281893" class="icon-s-0" data-fill-palette-color="accent" id="s-0"><path fill="#0023ff" d="M67.4 66.2V1.5c0-0.3-0.2-0.5-0.5-0.5H5.1C4.8 1 4.6 1.2 4.6 1.5v64.8c0 0.3-0.2 0.5-0.5 0.5H1.5c-0.3 0-0.5 0.2-0.5 0.5v3.4C1 70.8 1.2 71 1.5 71h69.1c0.3 0 0.5-0.2 0.5-0.5v-3.4c0-0.3-0.2-0.5-0.5-0.5h-2.7C67.6 66.7 67.4 66.5 67.4 66.2zM11.4 10h18.1c0.3 0 0.5 0.2 0.5 0.5v13.9c0 0.3-0.2 0.5-0.5 0.5H11.4c-0.3 0-0.5-0.2-0.5-0.5V10.4C11 10.2 11.2 10 11.4 10zM57.5 65.1h-43c-0.3 0-0.5-0.2-0.5-0.5V39.4c0-0.3 0.2-0.5 0.5-0.5H34c0.3 0 0.5 0.2 0.5 0.5v21.2c0 0.3 0.2 0.5 0.5 0.5h2.1c0.3 0 0.5-0.2 0.5-0.5V39.4c0-0.3 0.2-0.5 0.5-0.5h19.5c0.3 0 0.5 0.2 0.5 0.5v25.3C57.9 64.9 57.7 65.1 57.5 65.1zM60.6 24.8H42.4c-0.3 0-0.5-0.2-0.5-0.5V10.4c0-0.3 0.2-0.5 0.5-0.5h18.1c0.3 0 0.5 0.2 0.5 0.5v13.9C61 24.6 60.8 24.8 60.6 24.8z" data-fill-palette-color="accent"></path></svg></g></svg></g></svg></g></svg></g></svg></g><defs></defs></svg><rect width="395.5199999999999" height="136.47517693999566" fill="none" stroke="none" visibility="hidden"></rect></g></svg></g></svg>